# xmcd CD database file
#
# Track frame offsets:
#	182
#	20740
#	45077
#	62490
#	76675
#	96310
#	114287
#	126755
#	145780
#	164785
#	184885
#	203820
#	218667
#	240572
#	258895
#	278172
#	288820
#	307182
#
# Disc length: 4376 seconds
#
# Revision: 2
# Processed by: cddbd v1.4b41PL1 Copyright (c) Steve Scherf et al.
# Submitted via: Feurio! 1.60 - http://www.feurio.com
#
DISCID=15111612,f9111612
DTITLE=Various Artist - Das Beste aus Jugendliebe [CD1]
DYEAR=1900
DGENRE=
TTITLE0=CITY - Casablanca
TTITLE1=KARAT - Der blaue Planet
TTITLE2=VERONIKA FISCHER - Sommernachtsball
TTITLE3=RENFT - Wer die Rose ehrt
TTITLE4=LIFT - Nach Süden
TTITLE5=PANKOW - Wetten, du willst
TTITLE6=PUHDYS - Alt wie ein Baum
TTITLE7=4PS - Zweigroschenlied
TTITLE8=MICHAEL BARAKOWSKI - Zeit, die nie vergeht
TTITLE9=ELEKTRA - Nie zuvor
TTITLE10=KAKUSSELL - Als ich fortging
TTITLE11=STERN MEIßEN - Eine Nacht
TTITLE12=BERLUC - Hallo Erde, hier ist Alpha
TTITLE13=DATZU - Wenn es wärmer wird
TTITLE14=WAHKONDA - Regen
TTITLE15=POSSENSPIEL - Sommer, Sonne, Sonnenbrand
TTITLE16=JESSICA - Ich beobachte dich
TTITLE17=SILLY - Mont Klamott
EXTD=
EXTT0=
EXTT1=
EXTT2=
EXTT3=
EXTT4=
EXTT5=
EXTT6=
EXTT7=
EXTT8=
EXTT9=
EXTT10=
EXTT11=
EXTT12=
EXTT13=
EXTT14=
EXTT15=
EXTT16=
EXTT17=
PLAYORDER=
